<svg width="32" height="32" viewBox="0 0 32 32" fill="none" xmlns="http://www.w3.org/2000/svg">
<path d="M28.751 6.96803L28.281 7.11703L25.778 7.34003L25.071 8.46903L24.558 8.30603L22.566 6.51003L22.277 5.57603L21.89 4.58003L20.638 3.45703L19.161 3.16803L19.127 3.84403L20.574 5.25603L21.282 6.09003L20.486 6.50603L19.838 6.31503L18.867 5.91003L18.9 5.12703L17.626 4.60303L17.203 6.44403L15.919 6.73503L16.046 7.76203L17.719 8.08403L18.008 6.44303L19.389 6.64703L20.031 7.02303H21.061L21.766 8.43503L23.635 10.331L23.498 11.068L21.991 10.876L19.387 12.191L17.512 14.44L17.268 15.436H16.595L15.341 14.858L14.123 15.436L14.426 16.721L14.956 16.11L15.888 16.081L15.823 17.235L16.595 17.461L17.366 18.327L18.625 17.973L20.063 18.2L21.733 18.649L22.567 18.747L23.981 20.352L26.71 21.957L24.945 25.329L23.082 26.195L22.375 28.122L19.679 29.922L19.392 30.96C26.284 29.3 31.411 23.109 31.411 15.707C31.409 12.474 30.429 9.46503 28.751 6.96803Z" fill="#3D485B"/>
<path d="M17.511 23.917L16.367 21.796L17.417 19.608L16.367 19.294L15.188 18.11L12.576 17.524L11.709 15.71V16.787H11.327L9.076 13.735V11.228L7.426 8.54498L4.806 9.01198H3.041L2.153 8.42998L3.286 7.53198L2.156 7.79298C0.794 10.119 0 12.818 0 15.709C0 24.382 7.031 31.416 15.705 31.416C16.373 31.416 17.028 31.357 17.676 31.279L17.512 29.376C17.512 29.376 18.233 26.55 18.233 26.454C18.232 26.357 17.511 23.917 17.511 23.917Z" fill="#3D485B"/>
<path d="M5.83601 5.065L8.62601 4.676L9.91201 3.971L11.359 4.388L13.671 4.26L14.463 3.015L15.618 3.205L18.423 2.942L19.196 2.09L20.286 1.362L21.828 1.594L22.39 1.509C20.359 0.553 18.099 0 15.704 0C10.829 0 6.47001 2.222 3.59201 5.711H3.60001L5.83601 5.065ZM16.368 1.562L17.972 0.679L19.002 1.274L17.511 2.409L16.087 2.552L15.446 2.136L16.368 1.562ZM11.617 1.691L12.325 1.986L13.252 1.691L13.757 2.566L11.617 3.128L10.588 2.526C10.587 2.526 11.594 1.878 11.617 1.691Z" fill="#3D485B"/>
</svg>
