<svg width="513" height="512" viewBox="0 0 513 512" fill="none" xmlns="http://www.w3.org/2000/svg">
<path d="M505.749 475.584L360.149 329.984C388.352 295.147 405.333 250.88 405.333 202.667C405.333 90.923 314.41 0 202.666 0C90.922 0 0 90.922 0 202.666C0 314.41 90.923 405.333 202.667 405.333C250.88 405.333 295.147 388.352 329.984 360.149L475.584 505.749C479.744 509.909 485.205 512 490.667 512C496.129 512 501.59 509.909 505.75 505.749C514.091 497.408 514.091 483.925 505.749 475.584ZM202.667 362.666C114.432 362.666 42.667 290.901 42.667 202.666C42.667 114.431 114.432 42.666 202.667 42.666C290.902 42.666 362.667 114.431 362.667 202.666C362.667 290.901 290.901 362.666 202.667 362.666Z" fill="rgb(255,255,255,0.5)"/>
</svg>
