<svg width="512" height="512" viewBox="0 0 512 512" fill="none" xmlns="http://www.w3.org/2000/svg">
<g clip-path="url(#clip0)">
<path d="M31 105V407C31 428.445 46.079 446.435 66.191 450.923L92.583 503.708C95.125 508.79 100.318 512 106 512H406C411.682 512 416.875 508.79 419.417 503.708L445.809 450.923C465.92 446.435 481 428.445 481 407V105C481 80.187 460.813 60 436 60H292.213L326.606 25.607C332.464 19.749 332.464 10.252 326.606 4.39401C320.749 -1.46399 311.251 -1.46399 305.393 4.39401L256 53.787L206.607 4.39301C200.75 -1.46499 191.252 -1.46499 185.394 4.39301C179.536 10.251 179.536 19.748 185.394 25.606L219.787 60H76C51.187 60 31 80.187 31 105V105ZM396.73 482H115.271L100.271 452H411.73L396.73 482ZM451 105V407C451 415.271 444.271 422 436 422C275.59 422.012 266.057 422 75.997 422C67.728 422 61 415.271 61 407V105C61 96.729 67.729 90 76 90H436C444.271 90 451 96.729 451 105Z" fill="white"/>
<path d="M106.434 131.418C105.804 133.981 91 194.886 91 256C91 317.114 105.804 378.019 106.434 380.582C108.083 387.287 114.095 392 121 392H391C397.905 392 403.917 387.287 405.566 380.582C406.196 378.019 421 317.115 421 256C421 194.885 406.196 133.981 405.566 131.418C403.918 124.714 397.905 120 391 120H121C114.095 120 108.083 124.714 106.434 131.418ZM378.961 150C383.133 170.055 391 213.515 391 256C391 298.398 383.127 341.921 378.957 362H133.039C128.867 341.945 121 298.485 121 256C121 213.602 128.873 170.079 133.043 150H378.961Z" fill="white"/>
</g>
<defs>
<clipPath id="clip0">
<rect width="512" height="512" fill="white"/>
</clipPath>
</defs>
</svg>
