<svg width="513" height="513" viewBox="0 0 513 513" fill="none" xmlns="http://www.w3.org/2000/svg">
<g clip-path="url(#clip0)">
<path d="M511.267 197.258C509.503 191.827 504.81 187.869 499.16 187.049L340.437 163.984L269.452 20.157C266.926 15.037 261.711 11.796 256.002 11.796C250.292 11.796 245.078 15.037 242.551 20.157L171.563 163.984L12.843 187.049C7.19399 187.869 2.49899 191.827 0.73499 197.257C-1.03001 202.688 0.44199 208.649 4.53099 212.634L119.379 324.588L92.271 482.671C91.305 488.299 93.619 493.985 98.238 497.342C100.851 499.24 103.946 500.206 107.056 500.206C109.444 500.206 111.84 499.637 114.034 498.483L256.001 423.845L397.962 498.482C403.017 501.139 409.14 500.697 413.759 497.341C418.378 493.985 420.693 488.297 419.728 482.669L392.611 324.588L507.472 212.633C511.56 208.649 513.033 202.688 511.267 197.258Z" fill="white"/>
</g>
<defs>
<clipPath id="clip0">
<rect width="512.002" height="512.002" fill="white"/>
</clipPath>
</defs>
</svg>
