<svg width="333" height="333" viewBox="0 0 333 333" fill="none" xmlns="http://www.w3.org/2000/svg">
<g clip-path="url(#clip0)">
<path d="M330.804 171.002C327.204 164.602 318.804 162.202 312.004 166.202L266.404 192.602L254.804 199.402V262.602L265.604 269.002C266.004 269.002 266.004 269.402 266.404 269.402L311.204 295.402C313.204 297.002 316.004 297.802 318.804 297.802C326.404 297.802 332.404 291.802 332.404 284.202V230.602L332.804 177.802C332.804 175.402 332.404 173.002 330.804 171.002Z" fill="white"/>
<path d="M64.4041 150.602C100.004 150.602 128.804 121.802 128.804 86.202C128.804 50.602 100.004 21.802 64.4041 21.802C28.8041 21.802 0.00406124 50.602 0.00406124 86.202C-0.395939 121.802 28.8041 150.602 64.4041 150.602ZM64.4041 59.802C79.2041 59.802 90.8041 71.802 90.8041 86.202C90.8041 101.002 78.8041 112.602 64.4041 112.602C50.0041 112.602 38.0041 100.602 38.0041 86.202C37.6041 71.402 49.6041 59.802 64.4041 59.802Z" fill="white"/>
<path d="M227.604 154.202C217.204 159.402 205.604 162.602 193.204 162.602C178.004 162.602 163.604 158.202 151.604 150.202H106.004C94.0041 158.202 79.6041 162.602 64.4041 162.602C52.0041 162.602 40.4041 159.802 30.0041 154.202C20.8041 159.402 14.4041 169.802 14.4041 181.002V278.602C14.4041 296.602 29.2041 311.002 46.8041 311.002H211.204C229.204 311.002 243.604 296.202 243.604 278.602V181.002C243.204 169.802 236.804 159.402 227.604 154.202Z" fill="white"/>
<path d="M193.204 150.602C228.804 150.602 257.604 121.802 257.604 86.202C257.604 50.602 228.804 21.802 193.204 21.802C157.604 21.802 128.804 50.602 128.804 86.202C128.804 121.802 157.604 150.602 193.204 150.602ZM193.204 59.802C208.004 59.802 219.604 71.802 219.604 86.202C219.604 101.002 207.604 112.602 193.204 112.602C178.804 112.602 166.804 100.602 166.804 86.202C166.804 71.402 178.404 59.802 193.204 59.802Z" fill="white"/>
</g>
<defs>
<clipPath id="clip0">
<rect width="332.804" height="332.804" fill="white"/>
</clipPath>
</defs>
</svg>
