<svg width="480" height="480" viewBox="0 0 480 480" fill="none" xmlns="http://www.w3.org/2000/svg">
<path d="M432 328C413.347 328.033 397.194 340.954 393.064 359.144C377.712 349.618 358.288 349.618 342.936 359.144C338.091 337.64 316.731 324.136 295.228 328.98C280.193 332.367 268.452 344.109 265.064 359.144C249.712 349.618 230.288 349.618 214.936 359.144C210.091 337.64 188.731 324.136 167.228 328.98C152.193 332.367 140.452 344.109 137.064 359.144C121.712 349.618 102.288 349.618 86.936 359.144C81.877 337.64 60.344 324.308 38.839 329.366C20.88 333.591 8.14 349.551 8 368C8 372.418 11.582 376 16 376C20.418 376 24 372.418 24 368C24 354.745 34.745 344 48 344C61.255 344 72 354.745 72 368C72.033 369.381 72.433 370.729 73.16 371.904C59.447 390.722 61.306 416.687 77.56 433.36C74.564 434.464 71.874 436.266 69.712 438.616C66.003 442.744 63.967 448.107 64 453.656V472C64 476.418 67.582 480 72 480C76.418 480 80 476.418 80 472V453.656C79.977 452.09 80.529 450.57 81.552 449.384C82.268 448.538 83.308 448.035 84.416 448H139.616C140.724 448.035 141.764 448.538 142.48 449.384C143.503 450.57 144.055 452.09 144.032 453.656V472C144.032 476.418 147.614 480 152.032 480C156.45 480 160.032 476.418 160.032 472V453.656C160.065 448.107 158.029 442.744 154.32 438.616C152.158 436.266 149.468 434.464 146.472 433.36C162.726 416.687 164.585 390.722 150.872 371.904C151.588 370.726 151.977 369.378 152 368C152 354.745 162.745 344 176 344C189.255 344 200 354.745 200 368C200.033 369.381 200.433 370.729 201.16 371.904C187.447 390.722 189.306 416.687 205.56 433.36C202.564 434.464 199.874 436.266 197.712 438.616C194.003 442.744 191.967 448.107 192 453.656V472C192 476.418 195.582 480 200 480C204.418 480 208 476.418 208 472V453.656C207.977 452.09 208.529 450.57 209.552 449.384C210.268 448.538 211.308 448.035 212.416 448H267.616C268.724 448.035 269.764 448.538 270.48 449.384C271.503 450.57 272.055 452.09 272.032 453.656V472C272.032 476.418 275.614 480 280.032 480C284.45 480 288.032 476.418 288.032 472V453.656C288.065 448.107 286.029 442.744 282.32 438.616C280.158 436.266 277.468 434.464 274.472 433.36C290.726 416.687 292.585 390.722 278.872 371.904C279.588 370.726 279.977 369.378 280 368C280 354.745 290.745 344 304 344C317.255 344 328 354.745 328 368C328.033 369.381 328.433 370.729 329.16 371.904C315.447 390.722 317.306 416.687 333.56 433.36C330.564 434.464 327.874 436.266 325.712 438.616C322.003 442.744 319.967 448.107 320 453.656V472C320 476.418 323.582 480 328 480C332.418 480 336 476.418 336 472V453.656C335.977 452.09 336.529 450.57 337.552 449.384C338.268 448.538 339.308 448.035 340.416 448H395.616C396.724 448.035 397.764 448.538 398.48 449.384C399.503 450.57 400.055 452.09 400.032 453.656V472C400.032 476.418 403.614 480 408.032 480C412.45 480 416.032 476.418 416.032 472V453.656C416.065 448.107 414.029 442.744 410.32 438.616C408.158 436.266 405.468 434.464 402.472 433.36C418.726 416.687 420.585 390.722 406.872 371.904C407.588 370.726 407.977 369.378 408 368C408 354.745 418.745 344 432 344C445.255 344 456 354.745 456 368C456 372.418 459.582 376 464 376C468.418 376 472 372.418 472 368C471.974 345.92 454.08 328.026 432 328ZM112 432C94.327 432 80 417.673 80 400C80 382.327 94.327 368 112 368C129.673 368 144 382.327 144 400C144 417.673 129.673 432 112 432ZM240 432C222.327 432 208 417.673 208 400C208 382.327 222.327 368 240 368C257.673 368 272 382.327 272 400C272 417.673 257.673 432 240 432ZM368 432C350.327 432 336 417.673 336 400C336 382.327 350.327 368 368 368C385.673 368 400 382.327 400 400C400 417.673 385.673 432 368 432Z" fill="white"/>
<path d="M112 272C89.909 272 72 289.909 72 312C72 316.418 75.582 320 80 320C84.418 320 88 316.418 88 312C88 298.745 98.745 288 112 288C125.255 288 136 298.745 136 312C136 316.418 139.582 320 144 320C148.418 320 152 316.418 152 312C152 289.909 134.091 272 112 272Z" fill="white"/>
<path d="M240 272C217.909 272 200 289.909 200 312C200 316.418 203.582 320 208 320C212.418 320 216 316.418 216 312C216 298.745 226.745 288 240 288C253.255 288 264 298.745 264 312C264 316.418 267.582 320 272 320C276.418 320 280 316.418 280 312C280 289.909 262.091 272 240 272Z" fill="white"/>
<path d="M368 272C345.909 272 328 289.909 328 312C328 316.418 331.582 320 336 320C340.418 320 344 316.418 344 312C344 298.745 354.745 288 368 288C381.255 288 392 298.745 392 312C392 316.418 395.582 320 400 320C404.418 320 408 316.418 408 312C408 289.909 390.091 272 368 272Z" fill="white"/>
<path d="M472 40H466.76C466.465 39.403 466.094 38.846 465.656 38.344L443.312 16H472C476.418 16 480 12.418 480 8C480 3.582 476.418 0 472 0H8C3.582 0 0 3.582 0 8C0 12.418 3.582 16 8 16H20.688L44.688 40H8C3.582 40 0 43.582 0 48C0 52.418 3.582 56 8 56H16V84C4.267 96.546 4.621 116.142 16.8 128.256L32.4 143.856C35.524 146.979 40.588 146.979 43.712 143.856L77.648 109.912C80.771 106.788 80.771 101.724 77.648 98.6L62.048 83.008C54.235 75.069 42.796 71.874 32 74.616V56H232V75.336C226.483 76.608 221.423 79.376 217.376 83.336C211.398 89.342 208.029 97.462 208 105.936V128C208 132.418 211.582 136 216 136H264C268.418 136 272 132.418 272 128V105.936C271.977 97.454 268.608 89.324 262.624 83.312C258.577 79.352 253.517 76.584 248 75.312V56H448V74.616C437.198 71.877 425.753 75.082 417.944 83.032L402.344 98.624C399.221 101.748 399.221 106.812 402.344 109.936L436.28 143.88C439.404 147.003 444.468 147.003 447.592 143.88L463.192 128.28C475.388 116.166 475.746 96.551 464 84V56H472C476.418 56 480 52.418 480 48C480 43.582 476.418 40 472 40ZM39.432 89.656C43.678 89.644 47.751 91.333 50.744 94.344L60.688 104.28L38.064 126.912L28.12 116.968C21.873 110.719 21.874 100.588 28.123 94.341C31.123 91.342 35.191 89.657 39.432 89.656ZM43.312 16H84.688L64 36.688L43.312 16ZM83.312 40L104 19.312L124.688 40H83.312ZM123.312 16H164.688L144 36.688L123.312 16ZM163.312 40L184 19.312L204.688 40H163.312ZM224 36.688L203.312 16H244.688L224 36.688ZM251.312 94.624C254.302 97.631 255.986 101.695 256 105.936V120H224V105.936C224.002 97.099 231.167 89.938 240.003 89.939C244.245 89.94 248.312 91.625 251.312 94.624ZM243.312 40L264 19.312L284.688 40H243.312ZM283.312 16H324.688L304 36.688L283.312 16ZM323.312 40L344 19.312L364.688 40H323.312ZM363.312 16H404.688L384 36.688L363.312 16ZM403.312 40L424 19.312L444.688 40H403.312ZM456.568 105.656C456.58 109.902 454.891 113.975 451.88 116.968L441.936 126.912L419.312 104.28L429.256 94.344C435.505 88.097 445.636 88.098 451.883 94.347C454.882 97.347 456.567 101.415 456.568 105.656Z" fill="white"/>
<path d="M472 240H8C3.582 240 0 243.582 0 248C0 252.418 3.582 256 8 256H472C476.418 256 480 252.418 480 248C480 243.582 476.418 240 472 240Z" fill="white"/>
</svg>
