<svg width="508" height="508" viewBox="0 0 508 508" fill="none" xmlns="http://www.w3.org/2000/svg">
<path d="M442.45 0H65.5501C42.9501 0 24.55 18.4 24.55 41V303.2H75.75C74.55 311.5 73.75 319.8 73.75 327.9C73.95 427.2 154.75 508 254.05 508C353.35 508 434.15 427.2 434.15 327.9C434.15 319.8 433.35 311.5 432.15 303.2H483.35V41H483.45C483.45 18.4 465.05 0 442.45 0ZM90.25 327.9C90.25 319.8 90.8501 311.5 92.1501 303.2H184.65C181.85 311.1 180.15 319.5 180.15 327.9C180.15 353 192.75 375.2 212.05 388.5L184.75 476C129.05 449.9 90.25 393.4 90.25 327.9ZM254.05 368.8C276.65 368.8 295.05 350.4 295.05 327.8C295.05 318.5 291.85 310 286.55 303.1H305.75C309.45 310.8 311.35 319.3 311.35 327.8C311.35 359.4 285.65 385.2 253.95 385.2C222.35 385.2 196.55 359.5 196.55 327.8C196.55 319.3 198.45 310.8 202.15 303.1H221.35C216.05 310 212.85 318.5 212.85 327.8C213.05 350.4 231.45 368.8 254.05 368.8ZM229.45 327.9C229.45 314.3 240.45 303.3 254.05 303.3C267.65 303.3 278.65 314.3 278.65 327.9C278.65 341.5 267.65 352.5 254.05 352.5C240.45 352.4 229.45 341.4 229.45 327.9ZM254.05 491.6C235.05 491.6 216.95 488.2 200.05 482.2L226.95 396.3C235.35 399.7 244.55 401.6 254.15 401.6C263.75 401.6 272.95 399.7 281.35 396.3L308.25 482.2C291.15 488.2 273.05 491.6 254.05 491.6ZM323.35 476L295.95 388.5C315.15 375.2 327.85 353 327.85 327.9C327.85 319.5 326.25 311.1 323.35 303.2H415.85C417.15 311.5 417.75 319.8 417.75 327.9C417.85 393.4 379.05 449.9 323.35 476ZM467.05 286.8H41.05V237.6H467.05V286.8ZM467.15 221.2H467.05H41.05V41C41.05 27.4 52.0501 16.4 65.6501 16.4H442.55C456.15 16.4 467.15 27.4 467.15 41V221.2Z" fill="white"/>
<path d="M90.2501 254H57.4501V270.4H90.2501V254Z" fill="white"/>
<path d="M139.35 254H106.55V270.4H139.35V254Z" fill="white"/>
<path d="M188.55 254H155.75V270.4H188.55V254Z" fill="white"/>
</svg>
