<svg width="512" height="512" viewBox="0 0 512 512" fill="none" xmlns="http://www.w3.org/2000/svg">
<g clip-path="url(#clip0)">
<path d="M1 358.834C1 369.753 22.132 387.032 69.343 401.021C71.526 401.668 73.753 402.297 76 402.919V360.689C45.395 352.874 19.444 342.781 1 330.464V358.834Z" fill="white"/>
<path d="M3.55 240.543C2.677 239.895 1.829 239.243 1 238.589V285.501C1 296.42 22.132 313.699 69.343 327.688C71.526 328.335 73.753 328.964 76 329.586V271.955C75.512 271.825 75.016 271.698 74.531 271.566C43.59 263.185 20.373 253.038 3.55 240.543V240.543Z" fill="white"/>
<path d="M1 417.168C1 436.646 14.196 464.156 76 486.057V434.022C45.395 426.207 19.444 416.114 1 403.797V417.168Z" fill="white"/>
<path d="M106 278.859V336.745C145.622 344.86 192.017 349.563 241 350.364V292.034C192.189 291.256 145.684 286.7 106 278.859V278.859Z" fill="white"/>
<path d="M436 402.918C438.247 402.297 440.474 401.667 442.657 401.02C489.868 387.032 511 369.753 511 358.834V330.463C492.556 342.78 466.605 352.873 436 360.688V402.918Z" fill="white"/>
<path d="M436 486.056C497.804 464.155 511 436.646 511 417.167V403.795C492.556 416.112 466.605 426.205 436 434.02V486.056Z" fill="white"/>
<path d="M271 350.374C319.984 349.574 366.377 344.862 406 336.749V278.864C366.315 286.703 319.811 291.265 271 292.043V350.374Z" fill="white"/>
<path d="M437.47 271.565C436.984 271.697 436.489 271.824 436 271.954V329.586C438.247 328.965 440.473 328.335 442.657 327.688C489.868 313.699 511 296.42 511 285.501V238.59C510.171 239.244 509.323 239.896 508.45 240.544C491.628 253.038 468.41 263.185 437.47 271.565V271.565Z" fill="white"/>
<path d="M438.989 234.121C426.45 206.126 354.575 177.168 256 177.168C157.425 177.168 85.549 206.126 73.01 234.121L70.723 239.227C74.463 240.384 78.334 241.514 82.373 242.608C128.945 255.221 190.607 262.168 256 262.168C321.394 262.168 383.055 255.222 429.627 242.608C433.665 241.514 437.536 240.385 441.276 239.227L438.989 234.121Z" fill="white"/>
<path d="M42.584 228.661L45.631 221.859C55.671 199.444 82.166 180.42 122.254 166.844C159.72 154.156 207.218 147.168 256 147.168C304.781 147.168 352.28 154.156 389.745 166.844C429.833 180.42 456.329 199.444 466.368 221.859L469.415 228.661C497.039 215.922 511 200.357 511 182.168C511 156.906 484.076 136.705 431 122.11V75H480.05C484.826 75 489.057 71.95 490.536 67.327C491.814 63.331 490.558 58.952 487.592 55.985L469.106 37.5L487.828 18.778C491.205 15.401 492.041 10.253 489.817 5.938C487.896 2.209 483.911 0 479.716 0H416C407.716 0 401 6.716 401 15V75V115.059C363.062 107.488 318.259 103.069 271 102.295V75H320.05C324.826 75 329.057 71.95 330.536 67.327C331.814 63.331 330.558 58.952 327.592 55.985L309.106 37.5L327.828 18.778C331.205 15.401 332.041 10.253 329.817 5.938C327.896 2.209 323.911 0 319.716 0H256C247.716 0 241 6.716 241 15V75V102.295C193.742 103.069 148.938 107.488 111 115.059V75H160.05C164.826 75 169.057 71.95 170.536 67.327C171.814 63.331 170.558 58.952 167.592 55.985L149.106 37.5L167.828 18.778C171.205 15.401 172.041 10.253 169.817 5.938C167.896 2.209 163.911 0 159.716 0H96C87.716 0 81 6.716 81 15V75V122.11C27.924 136.706 1 156.906 1 182.168C1 200.357 14.961 215.922 42.584 228.661V228.661Z" fill="white"/>
<path d="M106 367.348V410.078C128.989 414.786 154.271 418.338 181 420.657V407.167C181 398.883 187.716 392.167 196 392.167H316C324.284 392.167 331 398.883 331 407.167V420.657C357.729 418.338 383.011 414.786 406 410.078V367.348C360.603 376.066 308.187 380.5 256 380.5C203.813 380.5 151.397 376.066 106 367.348Z" fill="white"/>
<path d="M106 495.128C128.742 500.974 154.079 505.387 181 508.262V450.733C154.795 448.536 129.457 445.186 106 440.681V495.128Z" fill="white"/>
<path d="M331 508.263C357.92 505.387 383.258 500.974 406 495.129V440.682C382.543 445.187 357.205 448.537 331 450.734V508.263Z" fill="white"/>
<path d="M211 510.779C220.861 511.388 230.873 511.796 241 512V422.168H211V510.779Z" fill="white"/>
<path d="M271 512C281.127 511.796 291.139 511.388 301 510.779V422.167H271V512Z" fill="white"/>
</g>
<defs>
<clipPath id="clip0">
<rect width="512" height="512" fill="white"/>
</clipPath>
</defs>
</svg>
