<svg width="461" height="461" viewBox="0 0 461 461" fill="none" xmlns="http://www.w3.org/2000/svg">
<g clip-path="url(#clip0)">
<path d="M230.149 120.939L65.986 256.274C65.986 256.465 65.938 256.746 65.842 257.129C65.748 257.509 65.698 257.785 65.698 257.981V395.022C65.698 399.97 67.507 404.258 71.124 407.869C74.74 411.482 79.022 413.3 83.971 413.3H193.601V303.664H266.698V413.304H376.327C381.275 413.304 385.563 411.49 389.174 407.869C392.791 404.262 394.606 399.971 394.606 395.022V257.981C394.606 257.221 394.502 256.647 394.318 256.274L230.149 120.939Z" fill="white"/>
<path d="M457.122 225.438L394.6 173.476V56.989C394.6 54.326 393.744 52.136 392.026 50.422C390.322 48.71 388.132 47.854 385.463 47.854H330.647C327.981 47.854 325.792 48.71 324.077 50.422C322.366 52.136 321.511 54.327 321.511 56.989V112.662L251.849 54.417C245.765 49.468 238.531 46.994 230.155 46.994C221.78 46.994 214.547 49.468 208.457 54.417L3.17195 225.438C1.26895 226.958 0.225947 229.004 0.0319471 231.574C-0.161053 234.142 0.503947 236.385 2.02895 238.287L19.7299 259.415C21.2549 261.127 23.2509 262.174 25.7259 262.557C28.0109 262.749 30.2959 262.081 32.5809 260.559L230.149 95.817L427.719 260.558C429.245 261.886 431.24 262.549 433.715 262.549H434.573C437.044 262.173 439.036 261.119 440.569 259.411L458.272 238.286C459.794 236.38 460.461 234.141 460.263 231.57C460.068 229.007 459.021 226.961 457.122 225.438Z" fill="white"/>
</g>
<defs>
<clipPath id="clip0">
<rect width="460.298" height="460.297" fill="white"/>
</clipPath>
</defs>
</svg>
