<svg width="414" height="414" viewBox="0 0 414 414" fill="none" xmlns="http://www.w3.org/2000/svg">
<g clip-path="url(#clip0)">
<path d="M244.873 161.937C251.528 161.937 256.918 167.329 256.918 173.981C256.918 180.631 251.528 186.021 244.873 186.021C238.224 186.021 232.829 180.632 232.829 173.981C232.829 167.328 238.223 161.937 244.873 161.937Z" fill="white"/>
<path d="M371.029 339.641C362.65 323.878 353.158 306.007 353.158 277.963C353.158 231.045 379.182 214.539 380.242 213.891C384.092 211.613 385.357 206.645 383.079 202.795C380.796 198.938 375.823 197.674 371.978 199.952C370.549 200.802 336.957 221.342 336.957 277.963C336.957 310.046 347.915 330.671 356.717 347.245C363.029 359.11 368.007 368.491 368.007 379.213C368.007 386.896 366.335 392.443 363.177 395.275C359.96 398.154 355.757 397.727 355.678 397.727C355.293 397.669 354.898 397.643 354.507 397.643H324.692C328.162 392.211 330.208 385.788 330.208 378.874V13.703C330.208 10.067 327.782 6.87597 324.275 5.89797C320.779 4.91197 317.05 6.40097 315.168 9.51297L275.606 74.998C263.467 74.767 227.797 74.489 121.018 74.489C98.345 74.489 87.123 74.505 81.454 74.545L45.009 4.37097C43.285 1.05397 39.501 -0.657032 35.9 0.233968C32.269 1.11997 29.716 4.37097 29.716 8.10197V378.864C29.716 398.144 45.397 413.833 64.682 413.833H188.46H295.244H354.064C354.596 413.88 355.35 413.928 356.289 413.928C360.25 413.928 367.374 413.047 373.649 407.631C380.652 401.577 384.207 392.017 384.207 379.202C384.208 364.452 377.811 352.397 371.029 339.641ZM115.041 202.22C99.469 202.22 86.799 189.553 86.799 173.981C86.799 158.406 99.474 145.737 115.041 145.737C130.611 145.737 143.283 158.406 143.283 173.981C143.283 189.553 130.616 202.22 115.041 202.22ZM194.134 234.763H188.152L187.498 246.016C187.25 250.32 183.68 253.647 179.419 253.647C179.263 253.647 179.103 253.642 178.944 253.636C174.48 253.372 171.066 249.539 171.332 245.082L171.931 234.768H165.785C161.315 234.768 157.684 231.145 157.684 226.668C157.684 222.19 161.315 218.567 165.785 218.567H194.135C198.607 218.567 202.235 222.19 202.235 226.668C202.234 231.145 198.606 234.763 194.134 234.763ZM244.873 202.22C229.301 202.22 216.629 189.553 216.629 173.981C216.629 158.406 229.306 145.737 244.873 145.737C260.451 145.737 273.128 158.406 273.128 173.981C273.127 189.553 260.451 202.22 244.873 202.22Z" fill="white"/>
<path d="M115.041 186.02C121.692 186.02 127.083 180.629 127.083 173.978C127.083 167.327 121.692 161.936 115.041 161.936C108.39 161.936 102.999 167.327 102.999 173.978C102.999 180.629 108.39 186.02 115.041 186.02Z" fill="white"/>
</g>
<defs>
<clipPath id="clip0">
<rect width="413.928" height="413.928" fill="white"/>
</clipPath>
</defs>
</svg>
