<svg width="512" height="512" viewBox="0 0 512 512" fill="none" xmlns="http://www.w3.org/2000/svg">
<path d="M256 0C114.617 0 0 114.617 0 256C0 397.383 114.617 512 256 512C397.383 512 512 397.383 512 256C512 114.617 397.383 0 256 0ZM344.484 269.57L216.484 349.57C213.89 351.187 210.953 352 208 352C205.328 352 202.656 351.336 200.25 349.992C195.156 347.172 192 341.82 192 336V176C192 170.18 195.156 164.828 200.25 162.008C205.297 159.164 211.531 159.352 216.484 162.43L344.484 242.43C349.156 245.36 352 250.485 352 256C352 261.515 349.156 266.641 344.484 269.57Z" fill="white"/>
</svg>
